<svg xmlns="http://www.w3.org/2000/svg" viewBox="0 0 146.95 146.33"><defs><style>.cls-1{fill:#f0532d;}</style></defs><title>Wikk-AlphaGlyph</title><g id="Layer_2" data-name="Layer 2"><g id="opt1"><circle class="cls-1" cx="141.96" cy="73.17" r="4.99"/><path class="cls-1" d="M12.62,110.41A4.15,4.15,0,0,1,9,108.26a73.06,73.06,0,0,1,2.11-73.77,4.15,4.15,0,1,1,7,4.4,64.76,64.76,0,0,0-1.87,65.38,4.15,4.15,0,0,1-3.64,6.15Z"/><path class="cls-1" d="M73.17,131.61a58.45,58.45,0,1,1,58.45-58.45A58.51,58.51,0,0,1,73.17,131.61ZM73.17,23a50.14,50.14,0,1,0,50.14,50.14A50.2,50.2,0,0,0,73.17,23Z"/><circle class="cls-1" cx="24.97" cy="23.05" r="4.99"/><circle class="cls-1" cx="21.85" cy="120.32" r="4.99"/><path class="cls-1" d="M140,60.15A4.15,4.15,0,0,1,136,57,64.9,64.9,0,0,0,41.27,16.68a4.15,4.15,0,1,1-4.09-7.23A73.21,73.21,0,0,1,144,55a4.15,4.15,0,0,1-4,5.18Z"/><path class="cls-1" d="M73.17,146.33a72.87,72.87,0,0,1-40-11.92,4.15,4.15,0,1,1,4.55-6.95,64.89,64.89,0,0,0,98.17-37.52,4.15,4.15,0,0,1,8,2.14A73.24,73.24,0,0,1,73.17,146.33Z"/><path class="cls-1" d="M33.36,61l16.7,32.59A6.88,6.88,0,0,0,52.23,96,4.88,4.88,0,0,0,55,97h8.28a4.73,4.73,0,0,0,2.78-1,7,7,0,0,0,2.13-2.39l5.41-10.45,5.48,10.45C80.33,95.91,81.94,97,84,97h8.28a4.73,4.73,0,0,0,2.78-1,7,7,0,0,0,2.13-2.39L114,61a3.15,3.15,0,0,0,.37-1.4c0-1.21-.62-1.75-2-1.75H101.48a4.79,4.79,0,0,0-2.81,1.05,6.5,6.5,0,0,0-2.09,2.41L88.24,77.8l-5.9-11.51L85,61a3.16,3.16,0,0,0,.37-1.4c0-1.21-.62-1.75-2-1.75H72.49c-2.14,0-3.74,1.13-4.91,3.47L59.25,77.79,50.72,61.36c-1.21-2.34-2.82-3.47-4.91-3.47H34.94c-1.4,0-2,.54-2,1.75A3.4,3.4,0,0,0,33.36,61Z"/></g></g></svg>