<svg xmlns="http://www.w3.org/2000/svg" viewBox="0 0 180.36 145.69"><defs><style>.cls-1{fill:#808285;}.cls-2{fill:#f0532d;}</style></defs><title>WikkLogo</title><g id="Layer_2" data-name="Layer 2"><g id="opt1"><path class="cls-1" d="M137.59,53.79a3.28,3.28,0,0,0-1.93-.61h-6a3.26,3.26,0,0,0-1.9.59,1.81,1.81,0,0,0-.94,1.57V86.82a1.91,1.91,0,0,0,.94,1.62,3.44,3.44,0,0,0,1.91.55h6a3.28,3.28,0,0,0,1.93-.61,1.8,1.8,0,0,0,.83-1.55v-9.9h4.22l8.06,9.75a5.35,5.35,0,0,0,4,2.32h9c.83,0,.94-.38.94-.71a2.34,2.34,0,0,0-.5-1.31h0L152.44,70l6.85-9.93a2.3,2.3,0,0,0,.5-1.27c0-.35-.11-.76-1-.76h-9a4.36,4.36,0,0,0-2.19.69,5.42,5.42,0,0,0-1.78,1.61l-6.74,9.81h-.7V55.34A1.8,1.8,0,0,0,137.59,53.79Z"/><path class="cls-1" d="M84.15,55.34a1.8,1.8,0,0,0-.83-1.55,3.28,3.28,0,0,0-1.93-.61H75.27a3.06,3.06,0,0,0-1.85.59,1.83,1.83,0,0,0-.9,1.58v2.45a1.82,1.82,0,0,0,.89,1.57,3.06,3.06,0,0,0,1.86.59h6.12a3.28,3.28,0,0,0,1.93-.61,1.8,1.8,0,0,0,.83-1.55Z"/><path class="cls-1" d="M124.58,87h0L112.92,70l6.85-9.93a2.3,2.3,0,0,0,.5-1.27c0-.35-.11-.76-1-.76h-9a4.36,4.36,0,0,0-2.19.69,5.42,5.42,0,0,0-1.78,1.61l-6.74,9.81h-.7V55.34a1.8,1.8,0,0,0-.83-1.55,3.28,3.28,0,0,0-1.93-.61h-6a3.26,3.26,0,0,0-1.9.59,1.81,1.81,0,0,0-.94,1.57V86.82a1.91,1.91,0,0,0,.94,1.62A3.44,3.44,0,0,0,90.1,89h6a3.28,3.28,0,0,0,1.93-.61,1.8,1.8,0,0,0,.83-1.55v-9.9h3.72l8.55,9.74c1.28,1.54,2.62,2.32,4,2.32h9c.83,0,.94-.38.94-.71A2.34,2.34,0,0,0,124.58,87Z"/><path class="cls-1" d="M39.29,86.71l3.61-7,3.66,7A3.62,3.62,0,0,0,49.84,89h5.53a3.16,3.16,0,0,0,1.86-.68,4.68,4.68,0,0,0,1.43-1.6l11.2-21.77a2.11,2.11,0,0,0,.25-.94c0-.81-.42-1.17-1.35-1.17H61.5a3.2,3.2,0,0,0-1.88.7,4.34,4.34,0,0,0-1.4,1.61l-5.57,11-3.94-7.69,1.78-3.51a2.11,2.11,0,0,0,.25-.94c0-.81-.42-1.17-1.35-1.17H42.13a3.56,3.56,0,0,0-3.28,2.32l-5.56,11-5.7-11a3.62,3.62,0,0,0-3.28-2.32H17c-.93,0-1.35.36-1.35,1.17a2.27,2.27,0,0,0,.29.94L27.14,86.71a4.6,4.6,0,0,0,1.45,1.59,3.26,3.26,0,0,0,1.88.68H36a3.16,3.16,0,0,0,1.86-.68A4.68,4.68,0,0,0,39.29,86.71Z"/><path class="cls-1" d="M73.41,88.39a3.06,3.06,0,0,0,1.86.59h6.12a3.28,3.28,0,0,0,1.93-.61,1.8,1.8,0,0,0,.83-1.55V65a1.86,1.86,0,0,0-.83-1.58,3.2,3.2,0,0,0-1.92-.63H75.27a3.05,3.05,0,0,0-1.85.59,1.93,1.93,0,0,0-.9,1.62V86.82A1.82,1.82,0,0,0,73.41,88.39Z"/><path class="cls-2" d="M90.18,119.89a40.78,40.78,0,0,1-28.79-11.8,4.77,4.77,0,0,1,6.7-6.8,31.48,31.48,0,0,0,44.36-.17,4.77,4.77,0,0,1,6.75,6.75A40.76,40.76,0,0,1,90.18,119.89Z"/><path class="cls-2" d="M64.55,46a4.77,4.77,0,0,1-3.37-8.14A41,41,0,0,1,118.38,37,4.77,4.77,0,0,1,111.82,44a31.48,31.48,0,0,0-43.9.61A4.76,4.76,0,0,1,64.55,46Z"/><path class="cls-2" d="M90.18,138.3a65.42,65.42,0,0,1-55.77-31.18,5,5,0,1,1,8.53-5.25,55.46,55.46,0,0,0,94.49,0,5,5,0,0,1,8.53,5.25A65.42,65.42,0,0,1,90.18,138.3Z"/><path class="cls-2" d="M38.67,46.2a5,5,0,0,1-4.26-7.64,65.47,65.47,0,0,1,111.55,0,5,5,0,0,1-8.53,5.25,55.46,55.46,0,0,0-94.49,0A5,5,0,0,1,38.67,46.2Z"/><path class="cls-2" d="M38.67,145.69a5,5,0,0,1-3-1A91,91,0,0,1,9.7,113.57a90.35,90.35,0,0,1,0-81.46A91,91,0,0,1,35.64,1,5,5,0,1,1,41.7,9,80.93,80.93,0,0,0,18.64,36.65a80.33,80.33,0,0,0,0,72.4A80.93,80.93,0,0,0,41.7,136.69a5,5,0,0,1-3,9Z"/><path class="cls-2" d="M141.7,145.69a5,5,0,0,1-3-9A80.93,80.93,0,0,0,161.73,109,80.23,80.23,0,0,0,138.93,9.2,5,5,0,0,1,145,1.25a91,91,0,0,1,25.72,31,90.35,90.35,0,0,1-.09,81.29,91,91,0,0,1-25.94,31.09A5,5,0,0,1,141.7,145.69Z"/></g></g></svg>