<svg xmlns="http://www.w3.org/2000/svg" viewBox="0 0 91.56 305.41"><defs><style>.cls-1{fill:#fff;}</style></defs><title>LeftBracket</title><g id="Layer_2" data-name="Layer 2"><g id="Isolation_Mode" data-name="Isolation Mode"><path class="cls-1" d="M81.05,305.41a10.46,10.46,0,0,1-6.35-2.14,190.79,190.79,0,0,1-54.37-65.18,189.4,189.4,0,0,1,0-170.76A190.76,190.76,0,0,1,74.71,2.14,10.5,10.5,0,1,1,87.42,18.86a169.64,169.64,0,0,0-48.35,58,168.4,168.4,0,0,0,0,151.77,169.65,169.65,0,0,0,48.35,58,10.5,10.5,0,0,1-6.36,18.86Z"/></g></g></svg>