<svg xmlns="http://www.w3.org/2000/svg" viewBox="0 0 91.56 305.41"><defs><style>.cls-1{fill:#fff;}</style></defs><title>RightBracket</title><g id="Layer_2" data-name="Layer 2"><g id="Isolation_Mode" data-name="Isolation Mode"><path class="cls-1" d="M10.51,0a10.46,10.46,0,0,1,6.35,2.14A190.79,190.79,0,0,1,71.23,67.32,187.07,187.07,0,0,1,91.56,152.7a187.07,187.07,0,0,1-20.34,85.38,190.76,190.76,0,0,1-54.37,65.18A10.5,10.5,0,1,1,4.14,286.55a169.64,169.64,0,0,0,48.35-58A166.25,166.25,0,0,0,70.56,152.7,166.25,166.25,0,0,0,52.5,76.82a169.65,169.65,0,0,0-48.35-58A10.5,10.5,0,0,1,10.51,0Z"/></g></g></svg>